<?xml version="1.0" standalone="no"?>
<!DOCTYPE svg PUBLIC "-//W3C//DTD SVG 20010904//EN"
 "http://www.w3.org/TR/2001/REC-SVG-20010904/DTD/svg10.dtd">
<svg version="1.0" xmlns="http://www.w3.org/2000/svg"
 width="512.000000pt" height="512.000000pt" viewBox="0 0 512.000000 512.000000"
 preserveAspectRatio="xMidYMid meet">
<metadata>
Created by potrace 1.14, written by Peter Selinger 2001-2017
</metadata>
<g transform="translate(0.000000,512.000000) scale(0.100000,-0.100000)"
fill="#000000" stroke="none">
<path d="M2520 4781 c-47 -36 -430 -251 -622 -350 -317 -164 -684 -328 -1010
-451 l-183 -69 -17 -133 c-70 -541 -217 -1191 -389 -1716 l-50 -152 133 -143
c410 -440 728 -839 1038 -1301 l112 -169 67 7 c359 34 496 40 961 40 465 0
602 -6 961 -40 l67 -7 112 169 c310 462 628 861 1038 1301 l133 143 -50 152
c-113 347 -210 720 -290 1124 -41 203 -99 561 -113 697 -3 27 -12 32 -186 97
-324 122 -693 287 -1007 449 -190 98 -503 274 -603 337 -60 39 -68 40 -102 15z
m212 -278 c10 -9 18 -20 18 -26 0 -5 34 -85 75 -178 41 -93 75 -179 75 -191 0
-49 -61 -76 -92 -40 -8 9 -39 72 -69 140 -48 111 -55 121 -67 105 -15 -21
-122 -234 -122 -244 0 -4 17 -5 38 -3 31 3 150 -45 772 -314 608 -262 737
-321 747 -342 17 -34 19 -1930 2 -1979 -10 -27 -26 -39 -123 -85 -61 -30 -393
-189 -739 -355 -345 -165 -636 -301 -646 -301 -10 0 -364 124 -787 275 -539
193 -774 281 -786 296 -17 20 -18 83 -18 1019 0 936 1 999 18 1018 9 12 321
169 692 351 435 213 677 336 681 348 34 93 90 221 122 281 21 39 35 72 30 72
-5 0 -56 -16 -114 -35 -121 -42 -157 -46 -175 -20 -18 24 -18 59 0 74 19 16
396 148 425 150 14 0 33 -6 43 -16z"/>
<path d="M2545 3893 c-27 -14 -53 -31 -57 -37 -14 -20 -9 -220 7 -281 8 -33
40 -110 71 -172 55 -109 56 -113 40 -138 -22 -33 -60 -33 -91 1 -36 38 -101
179 -126 268 -14 51 -22 113 -23 173 0 51 -3 93 -6 93 -16 0 -1089 -535 -1083
-541 11 -10 1303 -509 1318 -509 7 0 297 141 645 313 l632 312 -624 267 c-342
147 -630 270 -638 272 -8 3 -37 -7 -65 -21z"/>
<path d="M3320 2941 l-645 -318 -3 -872 c-1 -479 1 -871 5 -871 16 0 1286 615
1289 624 2 6 3 403 2 883 l-3 872 -645 -318z m198 -518 c54 -71 109 -142 121
-159 l23 -31 -28 -69 c-15 -38 -44 -105 -64 -150 -35 -76 -41 -83 -91 -107
-59 -30 -87 -34 -95 -13 -3 8 15 62 40 121 25 59 46 114 46 123 0 10 -48 78
-105 152 -58 74 -105 142 -105 150 0 29 32 62 84 86 28 13 56 24 63 24 7 0 56
-57 111 -127z m-268 -253 c0 -9 -20 -66 -45 -125 -53 -126 -62 -97 82 -285 95
-123 99 -133 65 -173 -18 -21 -96 -57 -123 -57 -20 0 -242 278 -247 310 -3 18
43 139 94 247 22 45 33 56 85 82 62 31 89 31 89 1z"/>
<path d="M1150 2254 l0 -895 33 -13 c17 -8 325 -118 682 -246 358 -128 653
-234 658 -237 4 -2 7 391 7 874 l0 879 -642 249 c-354 137 -664 257 -690 267
l-48 18 0 -896z m726 372 l201 -78 113 -113 113 -113 5 -446 5 -445 -24 -6
c-95 -22 -436 -95 -449 -95 -8 0 -120 105 -247 232 l-233 233 0 446 0 447 73
16 c39 9 90 20 112 24 30 7 51 4 85 -8 25 -10 135 -52 246 -94z"/>
<path d="M1585 2665 c-5 -2 -45 -11 -87 -20 l-78 -16 0 -412 0 -412 118 -115
c64 -63 158 -155 209 -204 l92 -89 205 44 206 44 0 410 0 410 -93 93 -93 92
-232 90 c-128 50 -233 90 -235 89 -1 0 -6 -2 -12 -4z m252 -142 l173 -66 0
-52 c0 -51 0 -51 -46 -73 -39 -19 -45 -26 -42 -50 3 -24 13 -31 93 -63 l90
-35 3 -46 c3 -51 9 -47 -86 -68 -29 -7 -64 -9 -77 -6 l-25 6 0 -185 c0 -202
-3 -193 63 -174 l37 10 0 103 0 104 71 16 c39 9 78 16 85 16 11 0 14 -38 14
-210 0 -115 -2 -210 -4 -210 -2 0 -82 -18 -177 -40 l-174 -39 -175 172 c-154
151 -176 177 -182 212 -9 54 -10 385 -1 385 4 0 43 -35 85 -77 l78 -78 0 -105
0 -106 50 -49 50 -49 0 187 c0 170 -2 188 -17 194 -10 3 -51 38 -90 77 -71 68
-73 72 -73 119 0 55 -5 55 104 11 74 -30 76 -30 76 2 0 15 -18 49 -45 83 -39
49 -45 64 -45 104 0 26 3 47 7 47 3 0 84 -30 180 -67z"/>
</g>
</svg>
